<svg xmlns="http://www.w3.org/2000/svg" xmlns:xlink="http://www.w3.org/1999/xlink" width="153" zoomAndPan="magnify" viewBox="0 0 114.75 30.000001" height="40" preserveAspectRatio="xMidYMid meet" version="1.0"><defs><g/><clipPath id="id1"><path d="M 80 7 L 96 7 L 96 22.441406 L 80 22.441406 Z M 80 7 " clip-rule="nonzero"/></clipPath><clipPath id="id2"><path d="M 69.976562 9 L 81 9 L 81 11 L 69.976562 11 Z M 69.976562 9 " clip-rule="nonzero"/></clipPath></defs><g fill="rgb(100%, 100%, 100%)" fill-opacity="1"><g transform="translate(40.347069, 21.206427)"><g><path d="M 5.984375 -13.671875 L 4.515625 -3.109375 L 9.5625 -3.109375 L 8.734375 0 L 0.125 0 L 2.015625 -13.671875 Z M 5.984375 -13.671875 "/></g></g></g><g fill="rgb(100%, 100%, 100%)" fill-opacity="1"><g transform="translate(50.441383, 21.206427)"><g><path d="M 5.984375 -13.671875 L 4.078125 0 L 0.125 0 L 2.015625 -13.671875 Z M 5.984375 -13.671875 "/></g></g></g><g fill="rgb(100%, 100%, 100%)" fill-opacity="1"><g transform="translate(56.116977, 21.206427)"><g><path d="M 6.796875 -14.0625 C 8.816406 -14.0625 10.441406 -13.429688 11.671875 -12.171875 L 9.65625 -10.109375 C 8.863281 -10.828125 7.960938 -11.1875 6.953125 -11.1875 C 6.429688 -11.1875 6.03125 -11.085938 5.75 -10.890625 C 5.46875 -10.691406 5.328125 -10.425781 5.328125 -10.09375 C 5.328125 -9.875 5.390625 -9.691406 5.515625 -9.546875 C 5.640625 -9.398438 5.847656 -9.257812 6.140625 -9.125 C 6.429688 -9 6.875 -8.835938 7.46875 -8.640625 C 8.65625 -8.234375 9.523438 -7.710938 10.078125 -7.078125 C 10.640625 -6.441406 10.921875 -5.640625 10.921875 -4.671875 C 10.921875 -3.804688 10.71875 -2.988281 10.3125 -2.21875 C 9.90625 -1.457031 9.242188 -0.832031 8.328125 -0.34375 C 7.410156 0.144531 6.234375 0.390625 4.796875 0.390625 C 3.628906 0.390625 2.601562 0.195312 1.71875 -0.1875 C 0.84375 -0.570312 0.109375 -1.070312 -0.484375 -1.6875 L 1.734375 -3.953125 C 2.609375 -3.066406 3.660156 -2.625 4.890625 -2.625 C 5.484375 -2.625 5.9375 -2.734375 6.25 -2.953125 C 6.5625 -3.179688 6.71875 -3.503906 6.71875 -3.921875 C 6.71875 -4.296875 6.578125 -4.601562 6.296875 -4.84375 C 6.015625 -5.09375 5.515625 -5.34375 4.796875 -5.59375 C 3.484375 -6.03125 2.546875 -6.570312 1.984375 -7.21875 C 1.421875 -7.863281 1.140625 -8.640625 1.140625 -9.546875 C 1.140625 -10.347656 1.34375 -11.085938 1.75 -11.765625 C 2.15625 -12.441406 2.78125 -12.992188 3.625 -13.421875 C 4.476562 -13.847656 5.535156 -14.0625 6.796875 -14.0625 Z M 6.796875 -14.0625 "/></g></g></g><g fill="rgb(100%, 100%, 100%)" fill-opacity="1"><g transform="translate(67.428891, 21.206427)"><g><path d="M 8.890625 -7.234375 C 9.703125 -7.066406 10.347656 -6.769531 10.828125 -6.34375 C 11.316406 -5.914062 11.5625 -5.25 11.5625 -4.34375 C 11.5625 -3.03125 11.035156 -1.976562 9.984375 -1.1875 C 8.929688 -0.394531 7.210938 0 4.828125 0 L 0.125 0 L 2.015625 -13.671875 L 6.171875 -13.671875 C 8.015625 -13.671875 9.421875 -13.425781 10.390625 -12.9375 C 11.367188 -12.457031 11.859375 -11.644531 11.859375 -10.5 C 11.859375 -9.59375 11.578125 -8.875 11.015625 -8.34375 C 10.453125 -7.820312 9.742188 -7.453125 8.890625 -7.234375 Z M 5.90625 -8.390625 C 6.65625 -8.390625 7.148438 -8.539062 7.390625 -8.84375 C 7.640625 -9.15625 7.765625 -9.539062 7.765625 -10 C 7.765625 -10.3125 7.640625 -10.539062 7.390625 -10.6875 C 7.148438 -10.832031 6.75 -10.90625 6.1875 -10.90625 L 5.578125 -10.90625 L 5.21875 -8.390625 Z M 5.21875 -2.84375 C 6.101562 -2.84375 6.703125 -3.003906 7.015625 -3.328125 C 7.335938 -3.648438 7.5 -4.101562 7.5 -4.6875 C 7.5 -5.445312 6.941406 -5.828125 5.828125 -5.828125 L 4.875 -5.828125 L 4.453125 -2.84375 Z M 5.21875 -2.84375 "/></g></g></g><g fill="rgb(100%, 100%, 100%)" fill-opacity="1"><g transform="translate(79.407995, 21.206427)"><g/></g></g><g fill="rgb(100%, 100%, 100%)" fill-opacity="1"><g transform="translate(83.492854, 21.206427)"><g/></g></g><g fill="rgb(100%, 100%, 100%)" fill-opacity="1"><g transform="translate(87.577713, 21.206427)"><g/></g></g><g fill="rgb(100%, 100%, 100%)" fill-opacity="1"><g transform="translate(91.662573, 21.206427)"><g/></g></g><g fill="rgb(100%, 100%, 100%)" fill-opacity="1"><g transform="translate(95.74216, 21.206427)"><g><path d="M 7.109375 0 L 6.96875 -2.65625 L 3.765625 -2.65625 L 2.90625 0 L -1.234375 0 L 4.578125 -13.671875 L 9.328125 -13.671875 L 11.3125 0 Z M 4.671875 -5.484375 L 6.8125 -5.484375 L 6.5 -11.140625 Z M 4.671875 -5.484375 "/></g></g></g><g clip-path="url(#id1)"><path fill="rgb(100%, 100%, 100%)" d="M 94.019531 15.828125 C 93.972656 15.878906 93.90625 15.90625 93.835938 15.894531 C 93.726562 15.878906 93.644531 15.773438 93.660156 15.65625 C 93.929688 13.71875 93.242188 11.777344 91.828125 10.460938 C 90.410156 9.148438 88.457031 8.640625 86.59375 9.097656 C 86.484375 9.125 86.371094 9.058594 86.347656 8.941406 C 86.328125 8.875 86.347656 8.804688 86.394531 8.75 C 86.421875 8.71875 86.457031 8.699219 86.496094 8.6875 C 88.492188 8.195312 90.585938 8.742188 92.105469 10.148438 C 93.621094 11.558594 94.355469 13.636719 94.070312 15.714844 C 94.066406 15.757812 94.046875 15.796875 94.019531 15.828125 Z M 90.917969 17.542969 C 89.445312 19.203125 86.929688 19.328125 85.304688 17.820312 C 83.679688 16.316406 83.558594 13.738281 85.03125 12.078125 C 86.503906 10.414062 89.019531 10.289062 90.644531 11.796875 C 92.269531 13.300781 92.390625 15.878906 90.917969 17.542969 Z M 89.554688 20.867188 C 89.527344 20.898438 89.492188 20.917969 89.449219 20.929688 C 87.457031 21.421875 85.363281 20.875 83.84375 19.46875 C 82.328125 18.0625 81.59375 15.980469 81.878906 13.902344 C 81.882812 13.859375 81.902344 13.820312 81.929688 13.789062 C 81.976562 13.738281 82.042969 13.710938 82.113281 13.722656 C 82.167969 13.730469 82.214844 13.757812 82.246094 13.804688 C 82.28125 13.847656 82.296875 13.902344 82.289062 13.960938 C 82.019531 15.898438 82.707031 17.839844 84.121094 19.15625 C 85.539062 20.46875 87.492188 20.980469 89.355469 20.519531 C 89.40625 20.503906 89.464844 20.515625 89.511719 20.542969 C 89.558594 20.574219 89.589844 20.621094 89.601562 20.675781 C 89.621094 20.742188 89.601562 20.8125 89.554688 20.867188 Z M 92.917969 9.230469 C 89.914062 6.441406 85.25 6.671875 82.523438 9.75 C 79.796875 12.824219 80.023438 17.597656 83.03125 20.386719 C 83.835938 21.132812 84.761719 21.664062 85.734375 21.980469 L 80.402344 21.980469 C 80.308594 21.980469 80.230469 22.0625 80.230469 22.160156 C 80.230469 22.257812 80.308594 22.335938 80.402344 22.335938 L 87.503906 22.335938 C 87.523438 22.335938 87.546875 22.332031 87.566406 22.324219 C 89.703125 22.445312 91.878906 21.617188 93.425781 19.867188 C 96.152344 16.792969 95.925781 12.019531 92.917969 9.230469 " fill-opacity="1" fill-rule="nonzero"/></g><path fill="rgb(100%, 100%, 100%)" d="M 86.832031 14.074219 L 85.789062 13.105469 C 85.78125 13.117188 85.769531 13.128906 85.761719 13.140625 L 86.808594 14.113281 C 86.816406 14.097656 86.824219 14.085938 86.832031 14.074219 " fill-opacity="1" fill-rule="nonzero"/><path fill="rgb(100%, 100%, 100%)" d="M 87.183594 13.691406 L 86.136719 12.71875 C 86.125 12.726562 86.113281 12.738281 86.105469 12.75 L 87.148438 13.71875 C 87.160156 13.707031 87.171875 13.699219 87.183594 13.691406 " fill-opacity="1" fill-rule="nonzero"/><path fill="rgb(100%, 100%, 100%)" d="M 88.765625 15.929688 L 89.8125 16.898438 C 89.824219 16.890625 89.835938 16.878906 89.847656 16.867188 L 88.800781 15.898438 C 88.789062 15.910156 88.777344 15.917969 88.765625 15.929688 " fill-opacity="1" fill-rule="nonzero"/><path fill="rgb(100%, 100%, 100%)" d="M 89.117188 15.546875 L 90.160156 16.515625 C 90.167969 16.5 90.179688 16.488281 90.1875 16.476562 L 89.140625 15.503906 C 89.132812 15.519531 89.125 15.53125 89.117188 15.546875 " fill-opacity="1" fill-rule="nonzero"/><path fill="rgb(100%, 100%, 100%)" d="M 87.675781 13.464844 L 87.609375 12.023438 C 87.59375 12.023438 87.578125 12.027344 87.5625 12.03125 L 87.632812 13.472656 C 87.644531 13.46875 87.660156 13.464844 87.675781 13.464844 " fill-opacity="1" fill-rule="nonzero"/><path fill="rgb(100%, 100%, 100%)" d="M 88.1875 13.445312 L 88.121094 12 C 88.105469 12 88.089844 12 88.074219 12 L 88.144531 13.441406 C 88.160156 13.441406 88.171875 13.445312 88.1875 13.445312 " fill-opacity="1" fill-rule="nonzero"/><path fill="rgb(100%, 100%, 100%)" d="M 87.761719 16.171875 L 87.828125 17.617188 C 87.84375 17.617188 87.859375 17.617188 87.875 17.617188 L 87.804688 16.179688 C 87.789062 16.175781 87.777344 16.171875 87.761719 16.171875 " fill-opacity="1" fill-rule="nonzero"/><path fill="rgb(100%, 100%, 100%)" d="M 88.273438 16.15625 L 88.339844 17.59375 C 88.355469 17.59375 88.371094 17.589844 88.386719 17.589844 L 88.316406 16.144531 C 88.300781 16.148438 88.289062 16.152344 88.273438 16.15625 " fill-opacity="1" fill-rule="nonzero"/><path fill="rgb(100%, 100%, 100%)" d="M 89.289062 14.503906 L 90.695312 14.433594 C 90.695312 14.417969 90.691406 14.402344 90.691406 14.386719 L 89.277344 14.457031 C 89.28125 14.472656 89.285156 14.488281 89.289062 14.503906 " fill-opacity="1" fill-rule="nonzero"/><path fill="rgb(100%, 100%, 100%)" d="M 89.304688 15.027344 L 90.71875 14.957031 C 90.71875 14.941406 90.71875 14.925781 90.71875 14.910156 L 89.3125 14.980469 C 89.308594 14.996094 89.308594 15.011719 89.304688 15.027344 " fill-opacity="1" fill-rule="nonzero"/><path fill="rgb(100%, 100%, 100%)" d="M 86.644531 14.589844 L 85.230469 14.660156 C 85.230469 14.675781 85.230469 14.691406 85.230469 14.707031 L 86.636719 14.636719 C 86.640625 14.621094 86.640625 14.605469 86.644531 14.589844 " fill-opacity="1" fill-rule="nonzero"/><path fill="rgb(100%, 100%, 100%)" d="M 86.660156 15.113281 L 85.253906 15.183594 C 85.253906 15.199219 85.257812 15.214844 85.257812 15.230469 L 86.671875 15.160156 C 86.667969 15.144531 86.664062 15.128906 86.660156 15.113281 " fill-opacity="1" fill-rule="nonzero"/><path fill="rgb(100%, 100%, 100%)" d="M 89.640625 12.574219 C 89.628906 12.5625 89.617188 12.554688 89.605469 12.542969 L 88.65625 13.617188 C 88.667969 13.625 88.679688 13.632812 88.695312 13.640625 L 89.640625 12.574219 " fill-opacity="1" fill-rule="nonzero"/><path fill="rgb(100%, 100%, 100%)" d="M 89.066406 14 L 90.019531 12.929688 C 90.007812 12.917969 89.996094 12.90625 89.988281 12.894531 L 89.039062 13.960938 C 89.050781 13.976562 89.058594 13.988281 89.066406 14 " fill-opacity="1" fill-rule="nonzero"/><path fill="rgb(100%, 100%, 100%)" d="M 86.882812 15.617188 L 85.929688 16.691406 C 85.941406 16.703125 85.953125 16.710938 85.960938 16.722656 L 86.910156 15.65625 C 86.898438 15.644531 86.890625 15.628906 86.882812 15.617188 " fill-opacity="1" fill-rule="nonzero"/><path fill="rgb(100%, 100%, 100%)" d="M 86.308594 17.042969 C 86.320312 17.054688 86.332031 17.0625 86.34375 17.074219 L 87.292969 16 C 87.28125 15.992188 87.269531 15.984375 87.253906 15.976562 L 86.308594 17.042969 " fill-opacity="1" fill-rule="nonzero"/><path fill="rgb(100%, 100%, 100%)" d="M 90.117188 16.796875 C 89.046875 18.003906 87.214844 18.097656 86.03125 17 C 84.851562 15.90625 84.761719 14.03125 85.832031 12.820312 C 86.902344 11.613281 88.734375 11.519531 89.917969 12.617188 C 91.097656 13.714844 91.1875 15.589844 90.117188 16.796875 Z M 90.078125 12.433594 C 88.800781 11.25 86.816406 11.347656 85.65625 12.65625 C 84.496094 13.964844 84.59375 15.996094 85.871094 17.183594 C 87.148438 18.371094 89.132812 18.269531 90.292969 16.960938 C 91.453125 15.652344 91.355469 13.621094 90.078125 12.433594 " fill-opacity="1" fill-rule="nonzero"/><path fill="rgb(100%, 100%, 100%)" d="M 90.398438 17.058594 C 89.1875 18.429688 87.113281 18.53125 85.773438 17.292969 C 84.4375 16.050781 84.335938 13.925781 85.550781 12.558594 C 86.761719 11.1875 88.835938 11.085938 90.175781 12.328125 C 91.511719 13.566406 91.613281 15.691406 90.398438 17.058594 Z M 90.546875 11.90625 C 88.984375 10.453125 86.554688 10.574219 85.136719 12.175781 C 83.71875 13.777344 83.835938 16.261719 85.402344 17.714844 C 86.964844 19.164062 89.394531 19.042969 90.8125 17.441406 C 92.230469 15.839844 92.113281 13.355469 90.546875 11.90625 " fill-opacity="1" fill-rule="nonzero"/><path fill="rgb(100%, 100%, 100%)" d="M 88.46875 15.265625 C 88.222656 15.542969 87.800781 15.566406 87.527344 15.3125 C 87.257812 15.0625 87.234375 14.628906 87.480469 14.351562 C 87.726562 14.074219 88.148438 14.050781 88.421875 14.304688 C 88.695312 14.554688 88.714844 14.988281 88.46875 15.265625 Z M 88.785156 13.894531 C 88.292969 13.4375 87.527344 13.476562 87.082031 13.980469 C 86.636719 14.484375 86.671875 15.265625 87.164062 15.722656 C 87.65625 16.179688 88.421875 16.140625 88.867188 15.636719 C 89.316406 15.132812 89.277344 14.351562 88.785156 13.894531 " fill-opacity="1" fill-rule="nonzero"/><path fill="rgb(100%, 100%, 100%)" d="M 74.757812 7.761719 L 84.402344 7.761719 C 84.535156 7.761719 84.640625 7.65625 84.640625 7.523438 C 84.640625 7.390625 84.535156 7.28125 84.402344 7.28125 L 74.757812 7.28125 C 74.628906 7.28125 74.523438 7.390625 74.523438 7.523438 C 74.523438 7.65625 74.628906 7.761719 74.757812 7.761719 " fill-opacity="1" fill-rule="nonzero"/><g clip-path="url(#id2)"><path fill="rgb(100%, 100%, 100%)" d="M 80.109375 9.835938 C 80.109375 9.703125 80.003906 9.597656 79.875 9.597656 L 70.230469 9.597656 C 70.097656 9.597656 69.992188 9.703125 69.992188 9.835938 C 69.992188 9.972656 70.097656 10.078125 70.230469 10.078125 L 79.875 10.078125 C 80.003906 10.078125 80.109375 9.972656 80.109375 9.835938 " fill-opacity="1" fill-rule="nonzero"/></g><path fill="rgb(100%, 100%, 100%)" d="M 80.476562 12 C 80.476562 11.902344 80.398438 11.824219 80.304688 11.824219 L 73.207031 11.824219 C 73.109375 11.824219 73.03125 11.902344 73.03125 12 C 73.03125 12.097656 73.109375 12.175781 73.207031 12.175781 L 80.304688 12.175781 C 80.398438 12.175781 80.476562 12.097656 80.476562 12 " fill-opacity="1" fill-rule="nonzero"/><g fill="rgb(0%, 61.569214%, 26.669312%)" fill-opacity="1"><g transform="translate(7.496078, 21.289221)"><g><path d="M 12.140625 -9.90625 C 12.140625 -8.957031 11.9375 -8.132812 11.53125 -7.4375 C 11.132812 -6.738281 10.367188 -6.097656 9.234375 -5.515625 L 11.6875 0 L 7.359375 0 L 5.5625 -4.875 L 4.75 -4.875 L 4.078125 0 L 0.125 0 L 2.015625 -13.671875 L 6.953125 -13.671875 C 8.628906 -13.671875 9.910156 -13.328125 10.796875 -12.640625 C 11.691406 -11.960938 12.140625 -11.050781 12.140625 -9.90625 Z M 5.140625 -7.578125 L 6.171875 -7.578125 C 6.804688 -7.578125 7.273438 -7.78125 7.578125 -8.1875 C 7.890625 -8.59375 8.046875 -9.078125 8.046875 -9.640625 C 8.046875 -10.484375 7.519531 -10.90625 6.46875 -10.90625 L 5.59375 -10.90625 Z M 5.140625 -7.578125 "/></g></g></g><g fill="rgb(0%, 61.569214%, 26.669312%)" fill-opacity="1"><g transform="translate(19.514987, 21.289221)"><g><path d="M 5.984375 -13.671875 L 4.078125 0 L 0.125 0 L 2.015625 -13.671875 Z M 5.984375 -13.671875 "/></g></g></g><g fill="rgb(0%, 61.569214%, 26.669312%)" fill-opacity="1"><g transform="translate(25.190581, 21.289221)"><g><path d="M 7.859375 -14.0625 C 9.609375 -14.0625 10.945312 -13.566406 11.875 -12.578125 C 12.8125 -11.585938 13.28125 -10.203125 13.28125 -8.421875 C 13.28125 -7.023438 13.039062 -5.65625 12.5625 -4.3125 C 12.09375 -2.976562 11.304688 -1.859375 10.203125 -0.953125 C 9.109375 -0.0546875 7.675781 0.390625 5.90625 0.390625 C 4.164062 0.390625 2.828125 -0.101562 1.890625 -1.09375 C 0.953125 -2.09375 0.484375 -3.484375 0.484375 -5.265625 C 0.484375 -6.660156 0.71875 -8.023438 1.1875 -9.359375 C 1.664062 -10.703125 2.457031 -11.820312 3.5625 -12.71875 C 4.664062 -13.613281 6.097656 -14.0625 7.859375 -14.0625 Z M 7.546875 -11.1875 C 6.773438 -11.1875 6.164062 -10.828125 5.71875 -10.109375 C 5.28125 -9.390625 4.976562 -8.554688 4.8125 -7.609375 C 4.65625 -6.660156 4.578125 -5.769531 4.578125 -4.9375 C 4.578125 -4.050781 4.707031 -3.414062 4.96875 -3.03125 C 5.238281 -2.65625 5.65625 -2.46875 6.21875 -2.46875 C 7 -2.46875 7.609375 -2.820312 8.046875 -3.53125 C 8.484375 -4.25 8.78125 -5.085938 8.9375 -6.046875 C 9.101562 -7.003906 9.1875 -7.914062 9.1875 -8.78125 C 9.1875 -9.644531 9.050781 -10.257812 8.78125 -10.625 C 8.519531 -11 8.109375 -11.1875 7.546875 -11.1875 Z M 7.546875 -11.1875 "/></g></g></g></svg>